<?xml version="1.0" standalone="no"?>
<!DOCTYPE svg PUBLIC "-//W3C//DTD SVG 20010904//EN"
 "http://www.w3.org/TR/2001/REC-SVG-20010904/DTD/svg10.dtd">
<svg version="1.0" xmlns="http://www.w3.org/2000/svg"
 width="700.000000pt" height="700.000000pt" viewBox="0 0 700.000000 700.000000"
 preserveAspectRatio="xMidYMid meet">
<metadata>
Created by potrace 1.11, written by Peter Selinger 2001-2013
</metadata>
<g transform="translate(0.000000,700.000000) scale(0.100000,-0.100000)"
fill="#000000" stroke="none">
<path d="M3220 6700 c-1119 -101 -2113 -784 -2600 -1785 -160 -329 -244 -601
-301 -975 -20 -125 -23 -185 -23 -440 0 -319 12 -439 70 -700 269 -1206 1228
-2165 2434 -2434 256 -57 383 -69 690 -70 345 -1 497 16 790 89 1147 286 2049
1188 2335 2335 73 293 90 445 89 790 -1 307 -13 434 -70 690 -210 944 -852
1758 -1719 2180 -328 160 -606 246 -970 300 -159 24 -561 35 -725 20z m580
-1254 c428 -72 790 -256 1090 -556 262 -263 428 -557 521 -922 144 -573 15
-1187 -354 -1671 -76 -101 -253 -278 -354 -354 -225 -172 -458 -283 -735 -354
-573 -144 -1187 -15 -1671 354 -102 77 -278 253 -357 356 -204 268 -336 582
-391 926 -17 104 -17 446 0 550 70 438 258 813 561 1115 333 334 744 524 1235
574 77 8 371 -4 455 -18z"/>
<path d="M3850 3825 l-745 -745 -352 352 -353 353 -142 -143 -143 -142 495
-495 495 -495 890 890 890 890 -140 140 c-77 77 -142 140 -145 140 -3 0 -340
-335 -750 -745z"/>
</g>
</svg>
